<svg xmlns="http://www.w3.org/2000/svg" width="174" height="52" fill="none"><g clip-path="url(#a)"><path fill="#FDC305" d="M51.58 20.85a22.23 22.23 0 0 0-6.93-9.09 21.96 21.96 0 0 0-21.79-2.93 22.08 22.08 0 0 0-9.05 6.94 22.35 22.35 0 0 0-3.06 21.95 22.24 22.24 0 0 0 6.81 9.18A21.97 21.97 0 0 0 28 51.44c-.5-1.82-1-3.82-1.45-5.95 1.3.85 2.67 1.6 4.1 2.21 0 0 .1 1.88.24 3.97 1.54.03 3.08-.1 4.6-.4a1.87 1.87 0 0 1 0-.66c.24-1.63.93-4.56 1.07-6.44 1-.94 1.83-2.03 2.5-3.23l-.05.39c-.48 3.7-1.47 7.65-2.07 8.75-.2.36-.44.7-.72 1a22 22 0 0 0 14.61-11.53 22.43 22.43 0 0 0 .75-18.7Zm-1.26 3.3c-.38.37-1.17.62-1.3-.5-.13-1.14-.16-1.93-.16-1.93s-1.66-2.98-2.28-3.01c-.62-.04-5.03 3.01-6.19 4.34-1 1.12-1.2 1.05-1.2 3.02 0 1.48.19 7.1.08 11.39l-7.02 1.88c-2.2.64-4.45 1.14-6.72 1.5l-.86-5.07h-.12l-2.21-11.44s-3.29-1.25-4.5-1.59a3.21 3.21 0 0 0-3.44.55 4.4 4.4 0 0 0-1.49 3.34c.18.4.32.83.42 1.26.04.42-1.04.38-1.73.38s-.79-1.26-.25-2.72c.43-1.13.95-2.22 1.57-3.25.47-.93 1.07-1.77 1.78-2.51 0 0 .12-.3 1.08-.21.96.08 6.27.37 6.27.37l.05-1.97c5.77-.8 11.6-1.2 17.43-1.17v1.6c2.2-1.02 4.59-1.61 7.01-1.74a.78.78 0 0 1 .67.33c.29.38 2.07 2.61 2.28 2.93.58.84 1.1 1.7 1.57 2.61a5.44 5.44 0 0 1-.74 1.6Z"/><path fill="#F06351" d="m48.64 18.83.86 1.12c.58.84 1.1 1.7 1.57 2.6a5.44 5.44 0 0 1-.74 1.55c-.38.38-1.16.63-1.29-.5-.13-1.13-.18-1.88-.18-1.88s-1.66-2.98-2.28-3.01c-.62-.04-5.02 3.01-6.19 4.34-1 1.12-1.2 1.05-1.2 3.02 0 1.3.14 5.78.1 9.76 1.57.17 3.86.6 4.55 1.63 0 0-.25-6.24 6.73-2.97 0 0 .24-8.5 9.87-6.33a37.71 37.71 0 0 0-11.8-9.33ZM39.57 16.81C39.6 12 39.2 7.2 38.36 2.45c0 0-.13-1.13-.75-.2-.51 1.1-.86 2.26-1.03 3.47a60.54 60.54 0 0 0-11.05.3c-.7-2.4-1.91-3.48-2.49-3.2-.57.3-.64 2.85-.64 2.85l-.29 12.3c5.79-.8 11.62-1.19 17.46-1.16Z"/><path fill="#E55645" d="M39.07 40.94c.1-.93.17-2.16.2-3.52l-7.02 1.88c-2.2.65-4.45 1.17-6.72 1.54l.96 4.34c0 .1 0 .2.06.29 1.3.85 2.67 1.6 4.1 2.22 2.08-1 4.07-2.21 5.93-3.6v.06a13.2 13.2 0 0 0 2.49-3.2Z"/><path fill="#000" d="M27.57 14.1c-.05-.1.86.58 1.21.8.35.2.53.36.53.5 0 .15-.23.3-.54.3-.3 0-.8-.1-.86-.22-.07-.13.52 0 .81 0h.25c-.53-.4-1-.86-1.4-1.39ZM34.03 14.19s-.87 1.11-.94 1.16c-.08.06-.15.3.16.26.36-.06.7-.14 1.05-.25.1-.05.06-.17-.1-.15-.17.01-.59.04-.86.1l.73-1.11s.03-.1-.04-.01ZM31.32 19.5c.4-.18.73-.48.94-.87.24-.57 0-.8-.38-.87a2.1 2.1 0 0 0-1.5.3c-.34.32-.3.63 0 .87.28.23.6.42.94.57Z"/><path fill="#F06351" d="M31.01 20.6a1.48 1.48 0 0 1-1.26.85c-.47.04-.94-.1-1.32-.39-.18-.1-.33-.23-.46-.39a.86.86 0 0 0-.3-.22c-.01 0 .64 3.58 2.2 4.15 1.57.57 1.86-.66 1.9-1 .06-.98-.19-1.96-.7-2.8 0-.27-.02-.1-.06-.2Z"/><path fill="#000" d="M29.55 21.58a3 3 0 0 1-2.03-1.24.13.13 0 0 1 0-.17.12.12 0 0 1 .09-.04.12.12 0 0 1 .08.04 2.78 2.78 0 0 0 1.82 1.14 1.8 1.8 0 0 0 1.42-.87l.12-.17.08.2s.33.65.86.69c.54.03.92-.37 1.4-1.12a.12.12 0 0 1 .17-.03.13.13 0 0 1 .04.17c-.57.85-1.11 1.26-1.62 1.22a1.33 1.33 0 0 1-.97-.63 1.95 1.95 0 0 1-1.46.81Z"/><path fill="#FDC305" d="M31.24 33.28a3.24 3.24 0 0 0 3.23-3.26c0-1.8-1.45-3.26-3.23-3.26A3.24 3.24 0 0 0 28 30.02c0 1.8 1.44 3.26 3.23 3.26Z"/><path fill="#111" d="m35.52 27.37-2.7 1.14 1-4.9-6.47 8.49 2.7-1.14-1 4.9 6.47-8.49Zm-6.37 3.33 3.58-4.7-.7 3.47 1.73-.7-3.61 4.7.7-3.47-1.7.7ZM27.94 29.42c.54 0 .97-.43.97-.97a.97.97 0 0 0-.97-.97.97.97 0 0 0-.96.97c0 .54.43.97.96.97ZM33.56 32.95c.38 0 .68-.3.68-.69 0-.38-.3-.68-.68-.68a.68.68 0 0 0 0 1.37ZM34.39 31.06a.3.3 0 0 0 .3-.3.3.3 0 0 0-.3-.3.3.3 0 0 0-.3.3c0 .17.13.3.3.3Z"/><path fill="#F06351" d="M39.52 18.39a49.73 49.73 0 0 0-4.38 4.52 27.56 27.56 0 0 1-4.58 4.26c-.19-.46-1.4-1.32-1.4-1.32s-2.7-1.87-4.48-3.34c-.96-.8-1.86-1.67-2.7-2.6l-1.73-.1A19.5 19.5 0 0 0 30.6 27.5c.74-.12 2.82-1.62 4.38-2.85a49.89 49.89 0 0 0 5.17-5.13c.43-.52.76-1.1.98-1.74-.98.33-1.6.62-1.6.62ZM22.34 24.33s-3.29-1.25-4.5-1.59a3.21 3.21 0 0 0-3.44.55 4.4 4.4 0 0 0-1.49 3.34c.18.4.32.83.42 1.26.04.42-1.04.38-1.73.38s-.79-1.26-.25-2.72a19.9 19.9 0 0 1 1.57-3.25C8.22 24.76 0 30.46 0 30.46c2.35-.14 4.71-.07 7.06.21 4.52.46 4.3 4.06 4.3 4.06 1.6-.44 3.21-.76 4.85-.96 1.83-.13 1.96 1.84 1.96 1.84l.45 3.35a15.8 15.8 0 0 1 2.29-2.05 5.19 5.19 0 0 1 3.77-1.13l-2.34-11.45Z"/><path fill="#111" d="M73.79 36.5a7.25 7.25 0 0 1-1.2-4.52v-6.51c-.12-1.61.3-3.21 1.18-4.56.8-1.03 2.16-1.55 4.1-1.54 1.92 0 3.23.46 3.91 1.36a5.88 5.88 0 0 1 1.15 3.9v1.53h-3.57V24.5c0-.43-.04-.87-.1-1.3-.05-.31-.2-.6-.41-.83a1.34 1.34 0 0 0-1-.32 1.25 1.25 0 0 0-1.29.65 4.8 4.8 0 0 0-.29 1.92v8.27c-.04.65.08 1.3.34 1.91a1.28 1.28 0 0 0 1.25.63 1.15 1.15 0 0 0 1.2-.64c.21-.61.3-1.26.27-1.9v-1.74h3.56v1.5a6.34 6.34 0 0 1-1.05 4.01c-.76.96-2.07 1.42-3.93 1.42-1.86 0-3.32-.52-4.12-1.59ZM87.79 19.62h4.08l3.45 18.25h-3.4l-.6-4.03h-2.87l-.69 4h-3.44l3.47-18.22Zm3.14 11.92-1.08-7.33-1.08 7.33h2.16ZM97.96 22.37h-2.79v-2.75h9.23v2.75h-2.75v15.47h-3.7l.01-15.47Z"/><path fill="#444" d="M111.65 19.62h7v1.9h-4.48v6.02h3.64v1.8h-3.64v6.68h4.53v1.82h-7.05V19.62ZM120.73 19.62h1.72l5.17 12.1v-12.1h2.1v18.25h-1.6l-5.18-12.45v12.42h-2.13l-.08-18.22ZM132.5 19.62h7v1.9h-4.48v6.02h3.67v1.8h-3.63v6.68h4.5v1.82h-7.06V19.62ZM141.58 19.62h3.63a6 6 0 0 1 4.02 1.14c.87.75 1.29 1.99 1.29 3.7 0 2.32-.75 3.73-2.23 4.25l2.58 9.13h-2.45l-2.36-8.55h-1.96v8.55h-2.52V19.62Zm3.44 7.82c.83.08 1.66-.15 2.33-.66a3.12 3.12 0 0 0 .7-2.35 5.12 5.12 0 0 0-.25-1.74 1.64 1.64 0 0 0-.86-.94 4.07 4.07 0 0 0-1.76-.3h-1.12v6.03l.96-.04ZM153.91 36.5a8.1 8.1 0 0 1-1.1-4.65v-6.09c-.02-1.17.12-2.34.44-3.47a3.9 3.9 0 0 1 1.5-2.1 5.06 5.06 0 0 1 2.9-.73 4.5 4.5 0 0 1 3.6 1.29 6.12 6.12 0 0 1 1.1 4.02v.68h-2.37v-.56c.01-.68-.04-1.36-.16-2.02-.08-.43-.31-.8-.65-1.07a2.57 2.57 0 0 0-1.49-.36 2.16 2.16 0 0 0-1.56.5c-.35.33-.59.79-.66 1.28-.1.71-.16 1.44-.15 2.16v6.77c-.06 1.03.11 2.06.51 3a2.43 2.43 0 0 0 3.85-.07c.42-1 .6-2.09.53-3.17v-1.29h-2.3v-1.8h4.57v9.02h-1.56l-.25-2.1a3.21 3.21 0 0 1-3.2 2.33 3.98 3.98 0 0 1-3.55-1.58ZM167.71 31.41l-3.9-11.79h2.34l2.77 8.8 2.72-8.8H174l-3.88 11.8v6.42h-2.41v-6.43Z"/></g><defs><clipPath id="a"><path fill="#fff" d="M0 0h174v51.68H0z"/></clipPath></defs></svg>