<svg xmlns="http://www.w3.org/2000/svg" width="202" height="60" fill="none"><g clip-path="url(#a)"><path fill="#FDC305" d="M59.88 24.21a25.8 25.8 0 0 0-8.05-10.55 25.5 25.5 0 0 0-25.29-3.4 25.64 25.64 0 0 0-10.51 8.04 25.95 25.95 0 0 0-3.55 25.48 25.82 25.82 0 0 0 7.9 10.67 25.5 25.5 0 0 0 12.13 5.27c-.58-2.11-1.17-4.44-1.69-6.91 1.51.99 3.1 1.85 4.76 2.57 0 0 .12 2.18.28 4.61 1.79.03 3.58-.13 5.33-.47a2.17 2.17 0 0 1 0-.77c.3-1.89 1.1-5.29 1.25-7.48a15.33 15.33 0 0 0 2.9-3.74l-.06.45c-.55 4.3-1.7 8.88-2.4 10.15-.23.42-.5.81-.83 1.16a25.55 25.55 0 0 0 16.96-13.38 26.04 26.04 0 0 0 .87-21.7Zm-1.47 3.82c-.44.44-1.35.73-1.5-.58-.15-1.31-.19-2.23-.19-2.23s-1.93-3.46-2.65-3.5c-.72-.04-5.83 3.5-7.18 5.04-1.17 1.3-1.4 1.21-1.4 3.5 0 1.73.22 8.24.1 13.23l-8.15 2.19a63.54 63.54 0 0 1-7.8 1.73l-1-5.88h-.14l-2.57-13.29s-3.8-1.45-5.2-1.84a3.73 3.73 0 0 0-4.01.63 5.11 5.11 0 0 0-1.73 3.89c.21.47.37.96.48 1.46.05.48-1.2.43-2 .43s-.92-1.45-.29-3.15A23.1 23.1 0 0 1 15 25.88a11.97 11.97 0 0 1 2.07-2.91s.14-.34 1.25-.24c1.11.1 7.28.43 7.28.43l.05-2.29c6.7-.93 13.47-1.38 20.24-1.35v1.85a22.36 22.36 0 0 1 8.14-2.02.9.9 0 0 1 .77.4c.34.42 2.41 3.02 2.65 3.4a28.3 28.3 0 0 1 1.83 3.02 6.32 6.32 0 0 1-.87 1.85v.01Z"/><path fill="#F06351" d="m56.46 21.86 1 1.3a28.3 28.3 0 0 1 1.83 3.03 6.32 6.32 0 0 1-.86 1.8c-.44.43-1.35.72-1.5-.6-.15-1.3-.2-2.17-.2-2.17s-1.94-3.46-2.66-3.5c-.72-.04-5.83 3.5-7.18 5.04-1.17 1.3-1.4 1.21-1.4 3.5 0 1.52.17 6.71.13 11.33 1.81.2 4.47.7 5.27 1.9 0 0-.29-7.25 7.81-3.45 0 0 .28-9.88 11.46-7.35a43.78 43.78 0 0 0-13.7-10.83ZM45.93 19.52a92.02 92.02 0 0 0-1.4-16.68s-.15-1.3-.87-.24c-.6 1.28-1 2.64-1.2 4.04a70.28 70.28 0 0 0-12.82.34c-.82-2.77-2.22-4.03-2.89-3.7-.67.33-.75 3.3-.75 3.3l-.33 14.3c6.71-.94 13.49-1.4 20.26-1.36Z"/><path fill="#E55645" d="M45.35 47.53c.13-1.08.2-2.51.24-4.1l-8.15 2.2a63.53 63.53 0 0 1-7.8 1.78l1.11 5.04c0 .12 0 .23.07.34 1.51.99 3.1 1.85 4.76 2.57a42.35 42.35 0 0 0 6.88-4.17v.06a15.33 15.33 0 0 0 2.9-3.72Z"/><path fill="#000" d="M32 16.36c-.05-.1 1 .69 1.41.93.41.24.61.42.61.6 0 .17-.26.34-.62.34s-.92-.12-1-.26c-.08-.15.6 0 .94 0h.3c-.62-.46-1.17-1-1.64-1.6ZM39.5 16.47s-1 1.3-1.09 1.35c-.09.07-.17.35.2.3.4-.07.81-.16 1.21-.29.11-.06.07-.2-.12-.18-.19.02-.68.05-1 .11l.85-1.28s.03-.12-.05 0ZM36.36 22.64c.47-.21.85-.56 1.1-1.01.27-.67 0-.92-.45-1.01-.6-.11-1.23.01-1.75.34-.39.37-.34.74 0 1.01s.7.5 1.1.67Z"/><path fill="#F06351" d="M36 23.9c-.11.24-.27.44-.46.61-.28.23-.63.37-1 .39-.55.05-1.1-.1-1.54-.45a2 2 0 0 1-.53-.45 1 1 0 0 0-.36-.25s.75 4.14 2.57 4.8c1.82.67 2.16-.76 2.21-1.14a5.72 5.72 0 0 0-.82-3.27c0-.3-.02-.1-.07-.23Z"/><path fill="#000" d="M34.3 25.06a3.48 3.48 0 0 1-2.35-1.45.15.15 0 0 1 0-.2.14.14 0 0 1 .2 0 3.23 3.23 0 0 0 2.11 1.32 2.1 2.1 0 0 0 1.64-1l.14-.2.1.23s.38.76 1 .8c.62.04 1.06-.42 1.63-1.3a.14.14 0 0 1 .2-.04.15.15 0 0 1 .04.2c-.67 1-1.3 1.47-1.89 1.43A1.54 1.54 0 0 1 36 24.1a2.27 2.27 0 0 1-1.7.95Z"/><path fill="#FDC305" d="M36.26 38.63c2.07 0 3.75-1.69 3.75-3.78a3.77 3.77 0 0 0-3.75-3.78 3.77 3.77 0 0 0-3.75 3.78 3.77 3.77 0 0 0 3.75 3.78Z"/><path fill="#111" d="M41.23 31.78 38.1 33.1l1.15-5.68-7.5 9.84 3.13-1.32-1.15 5.7 7.5-9.86Zm-7.39 3.86L38 30.18l-.8 4.04 2-.83-4.2 5.47.81-4.04-1.97.82ZM32.44 34.16c.62 0 1.12-.51 1.12-1.13 0-.63-.5-1.13-1.12-1.13-.62 0-1.12.5-1.12 1.13 0 .62.5 1.13 1.12 1.13ZM38.96 38.25a.8.8 0 0 0 .8-.8.8.8 0 0 0-.8-.8.8.8 0 0 0-.79.8c0 .44.36.8.8.8ZM39.92 36.06a.35.35 0 0 0 0-.7c-.2 0-.35.15-.35.35 0 .2.16.35.35.35Z"/><path fill="#F06351" d="M45.88 21.34c-1.8 1.65-3.5 3.4-5.09 5.26a31.99 31.99 0 0 1-5.3 4.94c-.23-.53-1.64-1.53-1.64-1.53s-3.14-2.17-5.2-3.87a32.02 32.02 0 0 1-3.14-3.03l-2-.11a22.65 22.65 0 0 0 12 8.92c.86-.14 3.28-1.89 5.1-3.31a57.9 57.9 0 0 0 6-5.96c.49-.6.88-1.28 1.13-2.02-1.14.38-1.86.71-1.86.71Z"/><path fill="#FDC305" d="m65.22 3.53-8.46 9.52-1.22-2L63.7 0l1.53 3.53ZM62.65 17.41l5.54-4.14-.78-3.78-5.4 4.85.64 3.07ZM59.92 49.8l6.13 3.2 3.01-2.35-6.69-2.78-2.45 1.93ZM1.95 6.02l3.07-3.39 9.29 9.08-1.22 2.3L1.95 6.02ZM7.38 16.42l-4.7-3.16-2.4 3.9 5.15 2.43 1.95-3.17ZM13.91 53 9.36 56.4l2.8 3.61 4.02-4.06-2.27-2.93Z"/><path fill="#F06351" d="M25.93 28.24s-3.8-1.45-5.2-1.84a3.73 3.73 0 0 0-4 .63 5.11 5.11 0 0 0-1.74 3.89c.21.47.37.96.48 1.46.05.48-1.2.43-2 .43s-.92-1.45-.29-3.15A23.1 23.1 0 0 1 15 25.88c-5.45 2.87-15 9.49-15 9.49 2.73-.17 5.47-.09 8.19.24 5.25.53 5 4.7 5 4.7 1.85-.5 3.73-.88 5.63-1.11 2.12-.14 2.27 2.14 2.27 2.14l.53 3.9c.8-.89 1.7-1.68 2.65-2.39 1.24-1 2.8-1.47 4.38-1.31l-2.72-13.3Z"/><path fill="#111" d="M85.66 42.37a8.42 8.42 0 0 1-1.4-5.24v-7.56a8.55 8.55 0 0 1 1.38-5.29c.93-1.2 2.51-1.8 4.75-1.8 2.24.01 3.76.54 4.55 1.59a6.82 6.82 0 0 1 1.33 4.53v1.77h-4.14v-1.92c0-.51-.04-1.02-.13-1.52a1.7 1.7 0 0 0-.47-.95 1.56 1.56 0 0 0-1.15-.38 1.45 1.45 0 0 0-1.5.76c-.26.7-.37 1.46-.34 2.22v9.6c-.04.76.1 1.52.4 2.22a1.49 1.49 0 0 0 1.44.74 1.34 1.34 0 0 0 1.4-.75c.25-.71.35-1.46.31-2.2v-2.03h4.14v1.75A7.36 7.36 0 0 1 95 42.56c-.88 1.1-2.4 1.65-4.56 1.65-2.16 0-3.85-.6-4.78-1.84ZM101.92 22.78h4.73l4 21.18h-3.94l-.7-4.68h-3.33l-.8 4.65h-4l4.04-21.15Zm3.64 13.84-1.25-8.52-1.25 8.52h2.5ZM113.72 25.96h-3.23v-3.18h10.72v3.18H118v17.97h-4.3l.02-17.96Z"/><path fill="#444" d="M129.62 22.78h8.13v2.2h-5.2v6.99h4.22v2.09h-4.22v7.75h5.25v2.12h-8.18V22.78ZM140.16 22.78h2l6 14.05V22.78h2.44v21.18h-1.87l-6-14.44v14.41h-2.48l-.1-21.15ZM153.83 22.78h8.12v2.2h-5.2v6.99H161v2.09h-4.22v7.75H162v2.12h-8.18V22.78ZM164.36 22.78h4.22a6.96 6.96 0 0 1 4.67 1.32c1 .88 1.49 2.3 1.49 4.3 0 2.69-.87 4.33-2.6 4.93l3 10.6h-2.83L169.56 34h-2.27v9.93h-2.93V22.78Zm4 9.08c.96.09 1.92-.18 2.7-.77a3.61 3.61 0 0 0 .82-2.73 5.95 5.95 0 0 0-.3-2.02 1.92 1.92 0 0 0-1-1.1 4.72 4.72 0 0 0-2.04-.34h-1.3v7l1.12-.04ZM178.68 42.37a9.4 9.4 0 0 1-1.27-5.4v-7.06c-.04-1.36.13-2.72.5-4.04.29-.98.9-1.84 1.74-2.43a5.87 5.87 0 0 1 3.36-.84 5.22 5.22 0 0 1 4.18 1.49 7.1 7.1 0 0 1 1.28 4.67v.79h-2.75v-.66a11.7 11.7 0 0 0-.18-2.34c-.1-.5-.36-.94-.76-1.24a2.98 2.98 0 0 0-1.72-.41 2.5 2.5 0 0 0-1.81.56c-.42.4-.69.92-.77 1.5-.13.82-.19 1.66-.17 2.5v7.86c-.08 1.2.12 2.4.59 3.5a2.83 2.83 0 0 0 3.5.74c.38-.2.71-.49.97-.84.48-1.16.69-2.42.6-3.68v-1.5h-2.65v-2.08h5.3v10.47h-1.81l-.3-2.43a3.72 3.72 0 0 1-3.72 2.7 4.63 4.63 0 0 1-4.11-1.83ZM194.7 36.47l-4.53-13.7h2.72l3.2 10.22 3.17-10.21H202l-4.5 13.69v7.46h-2.8l-.01-7.46Z"/></g><defs><clipPath id="a"><path fill="#fff" d="M0 0h202v60H0z"/></clipPath></defs></svg>